# Blender v2.79 (sub 0) OBJ File: ''
# www.blender.org
mtllib 22x3.mtl
o Cube_Cube.001
v -11.000000 -0.500002 1.500000
v -11.000000 0.499998 1.500000
v -11.000000 0.500002 -1.500000
v -11.000000 -0.499998 -1.500000
v 11.000000 0.500002 -1.500000
v 11.000000 -0.499998 -1.500000
v 11.000000 0.499998 1.500000
v 11.000000 -0.500002 1.500000
vt 0.666667 0.000000
vt 0.777777 0.000000
vt 0.777778 1.000000
vt 0.666667 1.000000
vt 1.000000 0.214286
vt 0.888889 0.214286
vt 0.888889 0.107143
vt 1.000000 0.107143
vt 0.777778 0.000000
vt 0.888889 0.000000
vt 0.888889 1.000000
vt 0.777778 1.000000
vt 0.888889 0.000000
vt 1.000000 0.000000
vt 1.000000 0.107143
vt 0.888889 0.107143
vt 0.333333 1.000000
vt 0.000000 1.000000
vt 0.000000 0.000000
vt 0.333333 0.000000
vt 0.666666 1.000000
vt 0.333333 1.000000
vt 0.333333 0.000000
vt 0.666667 0.000000
vn -1.0000 0.0000 0.0000
vn 0.0000 0.0000 -1.0000
vn 1.0000 -0.0000 0.0000
vn 0.0000 -0.0000 1.0000
vn 0.0000 -1.0000 -0.0000
vn 0.0000 1.0000 0.0000
usemtl None
s 1
f 1/1/1 2/2/1 3/3/1 4/4/1
f 4/5/2 3/6/2 5/7/2 6/8/2
f 6/9/3 5/10/3 7/11/3 8/12/3
f 8/13/4 7/14/4 2/15/4 1/16/4
f 4/17/5 6/18/5 8/19/5 1/20/5
f 5/21/6 3/22/6 2/23/6 7/24/6
